<?xml version="1.0" encoding="utf-8"?>
<!-- Generator: Adobe Illustrator 23.0.3, SVG Export Plug-In . SVG Version: 6.00 Build 0)  -->
<svg version="1.1" id="Layer_1" xmlns="http://www.w3.org/2000/svg" xmlns:xlink="http://www.w3.org/1999/xlink" x="0px" y="0px"
	 viewBox="0 0 38 19" style="enable-background:new 0 0 38 19;" xml:space="preserve">
<style type="text/css">
	.st0{fill:#FFFFFF;}
</style>
<g>
	<path class="st0" d="M10.4,2.9c-3.2,0-5.8,2.6-5.8,5.8h1c0-2.6,2.2-4.8,4.8-4.8c2.6,0,4.8,2.2,4.8,4.8c0,2.4-1.9,4.4-4.2,4.7
		l0.6-1.6l-4.9,0.8l3.2,3.8l0.7-1.9c3.1-0.1,5.6-2.7,5.6-5.8C16.2,5.5,13.6,2.9,10.4,2.9z"/>
	<path class="st0" d="M27.7,3.9c2.6,0,4.8,2.2,4.8,4.8h1c0-3.2-2.6-5.8-5.8-5.8s-5.8,2.6-5.8,5.8c0,3.1,2.5,5.7,5.6,5.8l0.7,1.9
		l3.2-3.8l-5-0.8l0.6,1.6c-2.3-0.3-4.1-2.4-4.1-4.7C22.9,6.1,25.1,3.9,27.7,3.9z"/>
</g>
</svg>
